<svg width="591" height="591" xmlns="http://www.w3.org/2000/svg">
 <defs>
  <style type="text/css">
   <![CDATA[
    .str0 {stroke:#2C4CD2;stroke-width:0.9;stroke-miterlimit:22.9256}
    .fil0 {fill:#2C4CD2;fill-rule:nonzero}
   ]]>
  </style>
 </defs>
 <g>
  <title>background</title>
  <rect fill="none" id="canvas_background" height="402" width="582" y="-1" x="-1"/>
 </g>
 <g>
  <title>Layer 1</title>
  <g id="svg_9">
   <metadata transform="translate(0,82.10000610351562) translate(81.84249877929688,0) translate(-143,0) translate(0,-113) translate(0,0.399993896484375) translate(-0.084991455078125,0) translate(0,-112.60000610351562) translate(-0.0000152587890625,0) translate(-143.0850067138672,0) translate(286.1700134277344,0) translate(0,112.60000610351562) translate(0,112.60000610351562) translate(0,30.68000030517578) translate(-143.0850067138672,0) translate(51.08500671386719,0) translate(0,-1) translate(1,0) translate(-1,0) translate(0,1) translate(-1,0) translate(-1,0) translate(0,1) translate(0,-1) translate(0,-1) translate(1,0) translate(1,0) translate(1,0) translate(1,0) translate(1,0) translate(1,0) translate(1,0) translate(1,0) translate(1,0) translate(1,0) translate(1,0) translate(1,0) translate(1,0) translate(1,0) translate(1,0) translate(1,0) translate(1,0) translate(1,0) translate(1,0) translate(1,0) translate(1,0) translate(1,0) translate(1,0) translate(1,0) translate(1,0) translate(1,0) translate(1,0) translate(1,0) translate(1,0) translate(1,0) translate(1,0) translate(1,0) translate(1,0) translate(1,0) translate(1,0) translate(1,0) translate(1,0) translate(1,0) translate(1,0) translate(1,0) translate(1,0) translate(1,0) translate(1,0) translate(1,0) translate(1,0) translate(1,0) translate(1,0) translate(1,0) translate(1,0) translate(1,0) translate(1,0) translate(1,0) translate(1,0) translate(1,0) translate(1,0) translate(1,0) translate(1,0) translate(1,0) translate(1,0) translate(1,0) translate(1,0) translate(1,0) translate(1,0) translate(0,1) translate(0,1) translate(0,-1) translate(0,-1) translate(0,-1) translate(0,-1) translate(0,-1) translate(0,-1) translate(0,-1) translate(0,-1) translate(0,-1) translate(0,-1) translate(0,-1) translate(0,-1) translate(0,-1) translate(0,-1) translate(0,-1) translate(0,-1) translate(0,-1) translate(0,-1) translate(0,-1) translate(0,-1) translate(0,-1) translate(0,-1) translate(0,-1) translate(0,-1) translate(0,-1) translate(0,-1) translate(0,-1) translate(0,-1) translate(0,-1) translate(0,-1) translate(0,-1) translate(0,-1) translate(1,0) translate(1,0) translate(1,0) translate(1,0) translate(1,0) translate(1,0) translate(1,0) translate(1,0) translate(1,0) translate(1,0) translate(1,0) translate(1,0) translate(1,0) translate(1,0) translate(1,0) translate(1,0) translate(1,0) translate(1,0) translate(1,0) translate(1,0) translate(1,0) translate(1,0) translate(1,0) translate(1,0) translate(1,0) translate(1,0) translate(1,0) translate(1,0) translate(1,0) translate(1,0) translate(1,0) translate(-1,0) translate(-1,0) translate(-1,0) translate(-1,0) translate(-1,0) translate(-1,0) translate(-1,0) translate(-1,0) translate(-1,0) translate(-1,0) translate(-1,0) translate(-1,0) translate(-1,0) translate(-1,0) translate(-1,0) translate(-1,0) translate(-1,0) translate(-1,0) translate(-1,0) translate(-1,0) translate(-1,0) translate(-1,0) translate(-1,0) translate(-1,0) translate(-1,0) translate(-1,0) translate(-1,0) translate(-1,0) translate(-1,0) translate(-1,0) translate(1,0) translate(1,0) translate(1,0) translate(1,0) translate(1,0) translate(1,0) translate(1,0) translate(1,0) translate(1,0) translate(1,0) translate(1,0) translate(1,0) translate(1,0) translate(1,0) translate(1,0) translate(1,0) translate(1,0) translate(1,0) translate(1,0) translate(1,0) translate(1,0) translate(1,0) translate(1,0) translate(1,0) translate(1,0) translate(1,0) translate(1,0) translate(1,0) translate(1,0) translate(1,0) translate(-1,0) translate(-1,0) translate(0,-1) translate(0,-1) translate(0,-1) translate(7.152557373046875e-7,0) translate(-94,-61) translate(22,4) translate(-65,-53) translate(-3.3600006103515625,0) " id="svg_4"/>
   <g id="svg_8">
    <path id="svg_5" d="m81.842499,295.500006c0,-117.85 95.53,-213.4 213.38,-213.4l0,30.49c-101.02,0 -182.9,81.89 -182.9,182.91l-30.48,0z" class="fil0 str0"/>
   </g>
  </g>
 </g>
</svg>